User Type,Username,Date,Text
,kuttootta,2010-06-07T05:10Z,"Thanks for accepting my request 

..............you rock man................"
,XHandHeld,2010-06-07T06:15Z,no prob
,kuttootta,2010-06-07T15:08Z,"@.M1K3Y.  Yes, any problem with that lol..."
,kuttootta,2010-06-07T17:32Z,"@.M1K3Y. It doesn't matter for me bro.

You don't even reply my undisputed request."
,kuttootta,2010-06-08T07:11Z,"eneral
Complete name                    : Undisputed.mp4
Format                           : MPEG-4
Format profile                   : Base Media / Version 2
Codec ID                         : mp42
File size                        : 322 MiB
Duration                         : 1h 29mn
Overall bit rate                 : 501 Kbps
Encoded date                     : UTC 2010-06-06 23:51:25
Tagged date                      : UTC 2010-06-06 23:52:24
Writing application              : mp4creator 1.4.4

Video
ID                               : 1
Format                           : AVC
Format/Info                      : Advanced Video Codec
Format profile                   : Main@L2.1
Format settings, CABAC           : Yes
Format settings, ReFrames        : 2 frames
Codec ID                         : avc1
Codec ID/Info                    : Advanced Video Coding
Duration                         : 1h 29mn
Bit rate mode                    : Variable
Bit rate                         : 372 Kbps
Width                            : 480 pixels
Height                           : 272 pixels
Display aspect ratio             : 16:9
Original display aspect ratio    : 16:9
Frame rate mode                  : Constant
Frame rate                       : 24.000 fps
Resolution                       : 8 bits
Colorimetry                      : 4:2:0
Scan type                        : Progressive
Bits/(Pixel*Frame)               : 0.119
Stream size                      : 239 MiB (74%)
Language                         : English
Encoded date                     : UTC 2010-06-06 23:51:25
Tagged date                      : UTC 2010-06-06 23:51:47

Audio
ID                               : 2
Format                           : AAC
Format/Info                      : Advanced Audio Codec
Format version                   : Version 4
Format profile                   : LC
Format settings, SBR             : No
Codec ID                         : 40
Duration                         : 1h 29mn
Bit rate mode                    : Variable
Bit rate                         : 125 Kbps
Maximum bit rate                 : 298 Kbps
Channel(s)                       : 2 channels
Channel positions                : L R
Sampling rate                    : 48.0 KHz
Stream size                      : 80.5 MiB (25%)
Language                         : English
Encoded date                     : UTC 2010-06-06 23:52:16
Tagged date                      : UTC 2010-06-06 23:52:24
"
